<svg width="62" height="62" fill="none" xmlns="http://www.w3.org/2000/svg"><path d="M31 62c17.12 0 31-13.88 31-31C62 13.88 48.12 0 31 0 13.88 0 0 13.88 0 31c0 17.12 13.88 31 31 31Z" fill="#fff"/><path d="M31.109 59.8a28.682 28.682 0 1 1 20.29-8.4 28.505 28.505 0 0 1-20.29 8.4Zm0-56.912A28.222 28.222 0 1 0 59.33 31.11 28.253 28.253 0 0 0 31.11 2.89v-.002Z" fill="#3072AC"/><path d="M31.11 59.8A28.689 28.689 0 1 1 59.8 31.11 28.725 28.725 0 0 1 31.11 59.8Zm0-53.763a25.074 25.074 0 1 0 25.075 25.074A25.104 25.104 0 0 0 31.11 6.037Z" fill="#F59440"/><path d="m50.818 43.68-5.545-3.545a16.804 16.804 0 0 0-27.347-19.459l-5.149-4.094a23.386 23.386 0 0 1 38.04 27.099Z" fill="#3072AC"/><path d="M23.47 53.213a23.38 23.38 0 0 1-11.791-35.111l5.464 3.67a16.807 16.807 0 0 0 8.475 25.224l-2.148 6.217Z" fill="#45A7B9"/><path d="M33.014 53.585a2.49 2.49 0 0 1-1 .699 3.701 3.701 0 0 1-1.684.26 2.855 2.855 0 0 1-2.068-.877 2.812 2.812 0 0 1-.74-2.109l.056-1.465a2.782 2.782 0 0 1 .862-2.04 2.683 2.683 0 0 1 2.04-.726 2.786 2.786 0 0 1 1.945.698 2.13 2.13 0 0 1 .63 1.67l-.013.028-1.329-.055a1.334 1.334 0 0 0-.328-.89 1.394 1.394 0 0 0-1.972.11c-.29.36-.445.81-.438 1.273l-.055 1.465c-.038.466.088.93.356 1.314a1.328 1.328 0 0 0 1.082.535c.266.017.534-.006.794-.069.172-.04.332-.12.467-.233l.041-1.302-1.246-.04.041-.973 2.643.096-.084 2.631ZM39.26 45.544l1.56 4.384a2.238 2.238 0 0 1-.123 1.972 3.07 3.07 0 0 1-1.712 1.285 3.013 3.013 0 0 1-2.123.083 2.228 2.228 0 0 1-1.344-1.452l-1.561-4.384 1.328-.479 1.562 4.384a1.285 1.285 0 0 0 .698.849c.35.133.736.128 1.082-.014a1.52 1.52 0 0 0 .863-.67 1.3 1.3 0 0 0 0-1.111l-1.562-4.384 1.331-.463ZM43.957 47.516l1.684 1.917-1.052.931-4.628-5.272 2.095-1.849a2.768 2.768 0 0 1 1.836-.794 2.25 2.25 0 0 1 2.136 2.438A2.796 2.796 0 0 1 45 46.597l-1.044.918Zm-.712-.822 1.041-.917a1.103 1.103 0 0 0 .452-.836 1.278 1.278 0 0 0-1.096-1.232 1.172 1.172 0 0 0-.89.342l-1.04.918 1.533 1.725ZM41.433 36.15a11.488 11.488 0 0 0-18.937-12.64l18.937 12.64Z" fill="#3072AC"/><path d="M22.482 23.51a11.626 11.626 0 0 0-1.314 1.822l7.614 17.035a11.484 11.484 0 0 0 12.64-6.216l-18.94-12.64Z" fill="#45A7B9"/><path d="M20.363 27.03a11.485 11.485 0 0 0 6.628 14.817L20.363 27.03Z" fill="#F59440"/><mask id="path-12-outside-1_697_71" maskUnits="userSpaceOnUse" x="5" y="41" width="22" height="17" fill="#000"><path fill="#fff" d="M5 41h22v17H5z"/><path fill-rule="evenodd" clip-rule="evenodd" d="m6 57 19.5-1V44L6 43v14Z"/><path fill-rule="evenodd" clip-rule="evenodd" d="m6 57 19.5-1v-6H6v7Z"/></mask><path fill-rule="evenodd" clip-rule="evenodd" d="m6 57 19.5-1V44L6 43v14Z" fill="#275495"/><path fill-rule="evenodd" clip-rule="evenodd" d="m6 57 19.5-1v-6H6v7Z" fill="#FAD120"/><path d="m25.5 56 .026.5.474-.025V56h-.5ZM6.026 57.5l19.5-1-.052-1-19.5 1 .052 1ZM26 56v-6h-1v6h1Zm-.5-12h1v-.95l-.949-.049L25.5 44ZM6 43l.051-.999L5 41.947V43h1Zm19.5 7v1h1v-1h-1ZM6 50v-1H5v1h1Zm19.551-6.999-19.5-1L5.95 44l19.5 1L25.55 43ZM5 43v14h2V43H5Zm20.5 6H6v2h19.5v-2ZM5 50v7h2v-7H5Zm21.5 0v-6h-2v6h2Z" fill="#fff" mask="url('#path-12-outside-1_697_71')"/></svg>