<svg width="62" height="62" viewBox="0 0 62 62" fill="none" xmlns="http://www.w3.org/2000/svg">
<path d="M31 62C48.1208 62 62 48.1208 62 31C62 13.8792 48.1208 0 31 0C13.8792 0 0 13.8792 0 31C0 48.1208 13.8792 62 31 62Z" fill="white"/>
<path d="M31.1088 59.7995C24.4734 59.797 18.0441 57.494 12.9163 53.2828C7.78858 49.0717 4.2795 43.2129 2.98697 36.7046C1.69444 30.1963 2.69842 23.4412 5.82788 17.5902C8.95734 11.7391 14.0186 7.15413 20.1495 4.6163C26.2804 2.07847 33.1015 1.74483 39.4508 3.67223C45.8001 5.59962 51.2847 9.66881 54.9702 15.1865C58.6558 20.7042 60.3142 27.3291 59.663 33.9324C59.0118 40.5358 56.0912 46.7091 51.3989 51.4006C48.7402 54.0726 45.5779 56.1908 42.0951 57.6325C38.6123 59.0742 34.8782 59.8107 31.1088 59.7995ZM31.1088 2.88794C25.5269 2.88794 20.0703 4.54316 15.4292 7.6443C10.788 10.7454 7.17066 15.1532 5.03456 20.3102C2.89846 25.4672 2.33956 31.1418 3.42853 36.6165C4.51751 42.0911 7.20545 47.1199 11.1524 51.0669C15.0994 55.0139 20.1282 57.7018 25.6028 58.7908C31.0775 59.8798 36.7521 59.3209 41.9091 57.1848C47.0661 55.0487 51.4739 51.4313 54.575 46.7901C57.6761 42.149 59.3314 36.6924 59.3314 31.1105C59.323 23.6281 56.3468 16.4545 51.0559 11.1638C45.7649 5.87301 38.5912 2.89715 31.1088 2.88911V2.88794Z" fill="#3072AC"/>
<path d="M31.1109 59.7998C25.4367 59.7998 19.89 58.1173 15.1721 54.9649C10.4542 51.8125 6.77711 47.3319 4.60571 42.0897C2.43431 36.8474 1.86616 31.079 2.97314 25.5139C4.08011 19.9488 6.81247 14.8369 10.8247 10.8247C14.8369 6.81247 19.9488 4.08011 25.5139 2.97314C31.079 1.86617 36.8474 2.43431 42.0897 4.60571C47.3319 6.77711 51.8125 10.4542 54.9649 15.1721C58.1173 19.89 59.7999 25.4367 59.7999 31.1109C59.7904 38.7168 56.7648 46.0084 51.3866 51.3866C46.0084 56.7648 38.7168 59.7904 31.1109 59.7998ZM31.1109 6.03746C26.1517 6.03746 21.3039 7.50802 17.1805 10.2632C13.0571 13.0184 9.8433 16.9344 7.94551 21.516C6.04772 26.0977 5.55117 31.1393 6.51866 36.0031C7.48614 40.867 9.87422 45.3348 13.3809 48.8414C16.8875 52.3481 21.3553 54.7362 26.2192 55.7037C31.0831 56.6711 36.1246 56.1746 40.7063 54.2768C45.288 52.379 49.204 49.1652 51.9591 45.0418C54.7143 40.9184 56.1849 36.0706 56.1849 31.1114C56.177 24.4638 53.5328 18.0906 48.8322 13.39C44.1316 8.68929 37.7585 6.04491 31.1109 6.03687V6.03746Z" fill="#F59440"/>
<path d="M50.8179 43.6808L45.2729 40.1354C47.5848 36.5022 48.4136 32.1202 47.5883 27.8937C46.7631 23.6673 44.3467 19.9189 40.838 17.4222C37.3293 14.9256 32.9961 13.8713 28.7325 14.4768C24.469 15.0823 20.6007 17.3016 17.9259 20.6764L12.7773 16.5822C16.5055 11.898 21.8883 8.82208 27.8166 7.98795C33.745 7.15382 39.7675 8.62505 44.6435 12.0986C49.5196 15.5721 52.8778 20.7833 54.0265 26.6589C55.1752 32.5344 54.0268 38.6267 50.8179 43.6808Z" fill="#3072AC"/>
<path d="M23.4696 53.2128C20.0876 52.0447 17.0188 50.116 14.4996 47.5751C11.9803 45.0342 10.078 41.9489 8.93891 38.557C7.79987 35.1651 7.45457 31.557 7.92963 28.0106C8.40469 24.4642 9.68741 21.0741 11.679 18.1016L17.1427 21.7715C15.7144 23.908 14.7951 26.3435 14.4554 28.8909C14.1157 31.4382 14.3646 34.0296 15.1831 36.4657C16.0016 38.9018 17.3678 41.1177 19.1767 42.9432C20.9856 44.7687 23.1891 46.155 25.6176 46.9957L23.4696 53.2128Z" fill="#45A7B9"/>
<path d="M33.0139 53.5851C32.7438 53.8972 32.4004 54.1372 32.0145 54.2836C31.4808 54.5001 30.9041 54.5892 30.33 54.5436C29.944 54.5449 29.5617 54.4678 29.2062 54.3171C28.8508 54.1664 28.5297 53.9452 28.2621 53.6669C28.0013 53.3846 27.8012 53.0518 27.674 52.6891C27.5468 52.3264 27.4954 51.9415 27.5228 51.5581L27.5777 50.0929C27.5741 49.7118 27.6488 49.3341 27.7972 48.9831C27.9456 48.6321 28.1645 48.3153 28.4404 48.0525C28.7114 47.7964 29.0328 47.5996 29.3842 47.4746C29.7355 47.3496 30.1089 47.2992 30.4808 47.3265C31.1945 47.3015 31.8906 47.5516 32.4253 48.025C32.645 48.2413 32.8151 48.5026 32.9239 48.791C33.0326 49.0794 33.0775 49.388 33.0554 49.6954L33.042 49.7229L31.7135 49.668C31.7168 49.341 31.5999 49.0242 31.385 48.7778C31.2484 48.6554 31.089 48.5611 30.9159 48.5004C30.7428 48.4396 30.5595 48.4135 30.3763 48.4237C30.1932 48.4338 30.0138 48.48 29.8485 48.5595C29.6832 48.639 29.5352 48.7503 29.413 48.8871C29.123 49.2477 28.968 49.6981 28.9746 50.1607L28.9197 51.6259C28.8824 52.0921 29.0083 52.5568 29.2756 52.9404C29.401 53.1085 29.5644 53.2445 29.7525 53.3373C29.9405 53.4302 30.1478 53.4772 30.3575 53.4747C30.6242 53.4917 30.8919 53.4687 31.1518 53.4063C31.3237 53.3656 31.4837 53.2856 31.6193 53.1725L31.6603 51.8714L30.4142 51.8305L30.4551 50.8579L33.0981 50.9538L33.0139 53.5851Z" fill="#3072AC"/>
<path d="M39.2593 45.5439L40.8205 49.9275C40.9522 50.2437 41.0096 50.586 40.9882 50.9279C40.9668 51.2697 40.8672 51.6022 40.6971 51.8995C40.2993 52.5197 39.6917 52.9761 38.9852 53.1854C38.3111 53.4697 37.5565 53.4989 36.8624 53.2678C36.5416 53.1457 36.2534 52.9511 36.0202 52.6993C35.787 52.4474 35.6152 52.1451 35.5181 51.8159L33.957 47.4324L35.2855 46.9531L36.8466 51.3367C36.893 51.5211 36.9797 51.6929 37.1005 51.8397C37.2212 51.9866 37.3731 52.1048 37.5451 52.1859C37.8944 52.3186 38.281 52.3137 38.6269 52.1725C38.9877 52.0635 39.2952 51.8244 39.4896 51.5015C39.5716 51.3279 39.6142 51.1383 39.6142 50.9462C39.6142 50.7542 39.5716 50.5646 39.4896 50.391L37.9285 46.0074L39.2593 45.5439Z" fill="#3072AC"/>
<path d="M43.9569 47.516L45.6414 49.4331L44.5893 50.3642L39.9609 45.0922L42.0562 43.2435C42.5476 42.7593 43.2021 42.476 43.8915 42.4492C44.1937 42.4635 44.4899 42.5385 44.7625 42.6699C45.035 42.8012 45.2783 42.9862 45.4777 43.2137C45.6771 43.4413 45.8286 43.7067 45.9231 43.9941C46.0176 44.2815 46.0532 44.585 46.0277 44.8865C45.9077 45.564 45.5421 46.1735 45.0008 46.5984L43.9569 47.516ZM43.2451 46.6943L44.286 45.7766C44.4187 45.6798 44.5282 45.5546 44.6063 45.4101C44.6845 45.2656 44.7294 45.1055 44.7378 44.9414C44.7301 44.6397 44.616 44.3505 44.4155 44.1249C44.215 43.8992 43.9412 43.7519 43.6425 43.7088C43.4784 43.7003 43.3144 43.7265 43.161 43.7855C43.0077 43.8445 42.8684 43.935 42.7523 44.0513L41.7114 44.9689L43.2451 46.6943Z" fill="#3072AC"/>
<path d="M41.4331 36.1502C42.6516 33.652 42.9231 30.7968 42.1972 28.1137C41.4713 25.4307 39.7973 23.1018 37.4855 21.5588C35.1736 20.0158 32.3807 19.3632 29.6245 19.7222C26.8682 20.0811 24.3356 21.4272 22.4961 23.5109L41.4331 36.1502Z" fill="#3072AC"/>
<path d="M22.4824 23.5107C21.9865 24.074 21.5463 24.6839 21.168 25.332L28.7819 42.3671C29.5438 42.5215 30.3191 42.5998 31.0964 42.6009C33.249 42.6016 35.3584 41.9973 37.1841 40.8569C39.0098 39.7165 40.4782 38.0859 41.4218 36.1512L22.4824 23.5107Z" fill="#45A7B9"/>
<path d="M20.3626 27.0303C19.2785 29.8742 19.3676 33.0321 20.6103 35.8104C21.8531 38.5886 24.1479 40.7599 26.9905 41.8473L20.3626 27.0303Z" fill="#F59440"/>
<mask id="path-12-outside-1_697_71" maskUnits="userSpaceOnUse" x="5" y="41" width="22" height="17" fill="black">
<rect fill="white" x="5" y="41" width="22" height="17"/>
<path fill-rule="evenodd" clip-rule="evenodd" d="M6 57L25.5 56V50V44L6 43V57Z"/>
<path fill-rule="evenodd" clip-rule="evenodd" d="M6 57L25.5 56V50H6V57Z"/>
</mask>
<path fill-rule="evenodd" clip-rule="evenodd" d="M6 57L25.5 56V50V44L6 43V57Z" fill="#275495"/>
<path fill-rule="evenodd" clip-rule="evenodd" d="M6 57L25.5 56V50H6V57Z" fill="#FAD120"/>
<path d="M25.5 56L25.5256 56.4993L26 56.475V56H25.5ZM6.02561 57.4993L25.5256 56.4993L25.4744 55.5007L5.97439 56.5007L6.02561 57.4993ZM26 56V50H25V56H26ZM25.5 44H26.5V43.05L25.5512 43.0013L25.5 44ZM6 43L6.05121 42.0013L5 41.9474V43H6ZM25.5 50V51H26.5V50H25.5ZM6 50V49H5V50H6ZM25.5512 43.0013L6.05121 42.0013L5.94879 43.9987L25.4488 44.9987L25.5512 43.0013ZM5 43V57H7V43H5ZM25.5 49H6V51H25.5V49ZM5 50V57H7V50H5ZM26.5 50V44H24.5V50H26.5Z" fill="white" mask="url(#path-12-outside-1_697_71)"/>
</svg>
